# xmcd
#
# Track frame offsets: 
#        150
#        11554
#        21518
#        34719
#        47050
#        59529
#        71749
#        85650
#        99155
#        113908
#        128859
#        143996
#        159064
#        171655
#        184897
#        199172
#        213171
#        228563
#        242860
#        256111
#
# Disc length: 3599 seconds
#
# Revision: 3
# Processed by: cddbd v1.5.2PL0 Copyright (c) Steve Scherf et al.
# Submitted via: ExactAudioCopy v1.1
#
DISCID=190e0d14
DTITLE=Benny Goodman - CD4_A Home In The Clouds
DYEAR=2002
DGENRE=Swing
TTITLE0=My Honey's Lovin' Arms
TTITLE1=Farwell Blues
TTITLE2=It Had To Be You
TTITLE3=Louise
TTITLE4=Whispering
TTITLE5=Bach Goes To Towen
TTITLE6=I'll Always Be In Love With You
TTITLE7=Undecided
TTITLE8=We'll Never Know
TTITLE9=Good For Nothin' But Love
TTITLE10=Blue Lou
TTITLE11=The Blues
TTITLE12=Shut-Eye
TTITLE13=Cuckoo In The Clock
TTITLE14=And The Angles Sing
TTITLE15=Sent For You Yesterday
TTITLE16=Estrellita
TTITLE17=A Home In The Clouds
TTITLE18=Show Your Linen, Miss Richerdson
TTITLE19=The Lady's In Love With You
EXTD=YEAR: 2002
EXTT0=
EXTT1=
EXTT2=
EXTT3=
EXTT4=
EXTT5=
EXTT6=
EXTT7=
EXTT8=
EXTT9=
EXTT10=
EXTT11=
EXTT12=
EXTT13=
EXTT14=
EXTT15=
EXTT16=
EXTT17=
EXTT18=
EXTT19=
PLAYORDER=
